<svg xmlns="http://www.w3.org/2000/svg" width="300" height="299" viewBox="0 0 300 299" fill="none"><metadata><rdf:RDF xmlns:rdf="http://www.w3.org/1999/02/22-rdf-syntax-ns#" xmlns:dc="http://purl.org/dc/elements/1.1/"><rdf:Description><dc:creator>RealFaviconGenerator</dc:creator><dc:source>https://realfavicongenerator.net</dc:source></rdf:Description></rdf:RDF></metadata><circle cx="150" cy="150" r="150" fill="#CCFF00"></circle><path d="M80.2 202.1C73 202.1 66.45 200.5 60.55 197.3C54.75 194 50.1 189.25 46.6 183.05C43.2 176.75 41.5 169.1 41.5 160.1V134.9C41.5 121.4 45.3 111.05 52.9 103.85C60.5 96.55 70.8 92.9 83.8 92.9C96.7 92.9 106.65 96.35 113.65 103.25C120.75 110.05 124.3 119.3 124.3 131V131.6H104.8V130.4C104.8 126.7 104 123.35 102.4 120.35C100.9 117.35 98.6 115 95.5 113.3C92.4 111.5 88.5 110.6 83.8 110.6C76.8 110.6 71.3 112.75 67.3 117.05C63.3 121.35 61.3 127.2 61.3 134.6V160.4C61.3 167.7 63.3 173.6 67.3 178.1C71.3 182.5 76.9 184.7 84.1 184.7C91.3 184.7 96.55 182.8 99.85 179C103.15 175.2 104.8 170.4 104.8 164.6V163.1H79.9V146.3H124.3V200H106V189.95H103.3C102.6 191.65 101.45 193.45 99.85 195.35C98.35 197.25 96.05 198.85 92.95 200.15C89.85 201.45 85.6 202.1 80.2 202.1ZM143.216 200V95H179.966L198.116 186.5H200.816L218.966 95H255.716V200H236.516V109.55H233.816L215.816 200H183.116L165.116 109.55H162.416V200H143.216Z" fill="#110E08"></path></svg>