<svg width="126" height="20" viewBox="0 0 126 20" fill="none" xmlns="http://www.w3.org/2000/svg">
<path d="M18.056 16V4.8H22.92C23.624 4.8 24.2373 4.92267 24.76 5.168C25.2827 5.41333 25.688 5.76 25.976 6.208C26.264 6.656 26.408 7.184 26.408 7.792V7.984C26.408 8.656 26.248 9.2 25.928 9.616C25.608 10.032 25.2133 10.336 24.744 10.528V10.816C25.1707 10.8373 25.5013 10.9867 25.736 11.264C25.9707 11.5307 26.088 11.888 26.088 12.336V16H23.976V12.64C23.976 12.384 23.9067 12.176 23.768 12.016C23.64 11.856 23.4213 11.776 23.112 11.776H20.168V16H18.056ZM20.168 9.856H22.696C23.1973 9.856 23.5867 9.72267 23.864 9.456C24.152 9.17867 24.296 8.816 24.296 8.368V8.208C24.296 7.76 24.1573 7.40267 23.88 7.136C23.6027 6.85867 23.208 6.72 22.696 6.72H20.168V9.856ZM32.0054 16.224C31.216 16.224 30.5067 16.064 29.8774 15.744C29.248 15.424 28.752 14.96 28.3894 14.352C28.0267 13.744 27.8454 13.0133 27.8454 12.16V11.904C27.8454 11.0507 28.0267 10.32 28.3894 9.712C28.752 9.104 29.248 8.64 29.8774 8.32C30.5067 8 31.216 7.84 32.0054 7.84C32.7947 7.84 33.504 8 34.1334 8.32C34.7627 8.64 35.2587 9.104 35.6214 9.712C35.984 10.32 36.1654 11.0507 36.1654 11.904V12.16C36.1654 13.0133 35.984 13.744 35.6214 14.352C35.2587 14.96 34.7627 15.424 34.1334 15.744C33.504 16.064 32.7947 16.224 32.0054 16.224ZM32.0054 14.432C32.624 14.432 33.136 14.2347 33.5414 13.84C33.9467 13.4347 34.1494 12.8587 34.1494 12.112V11.952C34.1494 11.2053 33.9467 10.6347 33.5414 10.24C33.1467 9.83467 32.6347 9.632 32.0054 9.632C31.3867 9.632 30.8747 9.83467 30.4694 10.24C30.064 10.6347 29.8614 11.2053 29.8614 11.952V12.112C29.8614 12.8587 30.064 13.4347 30.4694 13.84C30.8747 14.2347 31.3867 14.432 32.0054 14.432ZM42.7943 16.224C42.0796 16.224 41.5303 16.1013 41.1463 15.856C40.7623 15.6107 40.4796 15.3387 40.2983 15.04H40.0103V16H38.0263V4.8H40.0423V8.976H40.3303C40.4476 8.784 40.6023 8.60267 40.7943 8.432C40.9969 8.26133 41.2583 8.12267 41.5783 8.016C41.9089 7.89867 42.3143 7.84 42.7943 7.84C43.4343 7.84 44.0263 8 44.5703 8.32C45.1143 8.62933 45.5516 9.088 45.8823 9.696C46.2129 10.304 46.3783 11.04 46.3783 11.904V12.16C46.3783 13.024 46.2129 13.76 45.8823 14.368C45.5516 14.976 45.1143 15.44 44.5703 15.76C44.0263 16.0693 43.4343 16.224 42.7943 16.224ZM42.1863 14.464C42.8049 14.464 43.3223 14.2667 43.7383 13.872C44.1543 13.4667 44.3623 12.88 44.3623 12.112V11.952C44.3623 11.184 44.1543 10.6027 43.7383 10.208C43.3329 9.80267 42.8156 9.6 42.1863 9.6C41.5676 9.6 41.0503 9.80267 40.6343 10.208C40.2183 10.6027 40.0103 11.184 40.0103 11.952V12.112C40.0103 12.88 40.2183 13.4667 40.6343 13.872C41.0503 14.2667 41.5676 14.464 42.1863 14.464ZM48.2294 16V8.064H50.2454V16H48.2294ZM49.2374 7.136C48.8747 7.136 48.5654 7.01867 48.3094 6.784C48.064 6.54933 47.9414 6.24 47.9414 5.856C47.9414 5.472 48.064 5.16267 48.3094 4.928C48.5654 4.69333 48.8747 4.576 49.2374 4.576C49.6107 4.576 49.92 4.69333 50.1654 4.928C50.4107 5.16267 50.5334 5.472 50.5334 5.856C50.5334 6.24 50.4107 6.54933 50.1654 6.784C49.92 7.01867 49.6107 7.136 49.2374 7.136ZM52.4794 16V8.064H54.4634V9.104H54.7514C54.8794 8.82667 55.1194 8.56533 55.4714 8.32C55.8234 8.064 56.3567 7.936 57.0714 7.936C57.69 7.936 58.2287 8.08 58.6874 8.368C59.1567 8.64533 59.5194 9.03467 59.7754 9.536C60.0314 10.0267 60.1594 10.6027 60.1594 11.264V16H58.1434V11.424C58.1434 10.8267 57.994 10.3787 57.6954 10.08C57.4074 9.78133 56.9914 9.632 56.4474 9.632C55.8287 9.632 55.3487 9.84 55.0074 10.256C54.666 10.6613 54.4954 11.232 54.4954 11.968V16H52.4794ZM62.3388 16V4.8H64.3548V9.04H64.6428C64.7281 8.86933 64.8614 8.69867 65.0428 8.528C65.2241 8.35733 65.4641 8.21867 65.7628 8.112C66.0721 7.99467 66.4614 7.936 66.9308 7.936C67.5494 7.936 68.0881 8.08 68.5468 8.368C69.0161 8.64533 69.3788 9.03467 69.6348 9.536C69.8908 10.0267 70.0188 10.6027 70.0188 11.264V16H68.0028V11.424C68.0028 10.8267 67.8534 10.3787 67.5548 10.08C67.2668 9.78133 66.8508 9.632 66.3068 9.632C65.6881 9.632 65.2081 9.84 64.8668 10.256C64.5254 10.6613 64.3548 11.232 64.3548 11.968V16H62.3388ZM75.9741 16.224C75.1848 16.224 74.4755 16.064 73.8461 15.744C73.2168 15.424 72.7208 14.96 72.3581 14.352C71.9955 13.744 71.8141 13.0133 71.8141 12.16V11.904C71.8141 11.0507 71.9955 10.32 72.3581 9.712C72.7208 9.104 73.2168 8.64 73.8461 8.32C74.4755 8 75.1848 7.84 75.9741 7.84C76.7635 7.84 77.4728 8 78.1021 8.32C78.7315 8.64 79.2275 9.104 79.5901 9.712C79.9528 10.32 80.1341 11.0507 80.1341 11.904V12.16C80.1341 13.0133 79.9528 13.744 79.5901 14.352C79.2275 14.96 78.7315 15.424 78.1021 15.744C77.4728 16.064 76.7635 16.224 75.9741 16.224ZM75.9741 14.432C76.5928 14.432 77.1048 14.2347 77.5101 13.84C77.9155 13.4347 78.1181 12.8587 78.1181 12.112V11.952C78.1181 11.2053 77.9155 10.6347 77.5101 10.24C77.1155 9.83467 76.6035 9.632 75.9741 9.632C75.3555 9.632 74.8435 9.83467 74.4381 10.24C74.0328 10.6347 73.8301 11.2053 73.8301 11.952V12.112C73.8301 12.8587 74.0328 13.4347 74.4381 13.84C74.8435 14.2347 75.3555 14.432 75.9741 14.432ZM85.771 16.224C84.9817 16.224 84.2723 16.064 83.643 15.744C83.0137 15.424 82.5177 14.96 82.155 14.352C81.7923 13.744 81.611 13.0133 81.611 12.16V11.904C81.611 11.0507 81.7923 10.32 82.155 9.712C82.5177 9.104 83.0137 8.64 83.643 8.32C84.2723 8 84.9817 7.84 85.771 7.84C86.5603 7.84 87.2697 8 87.899 8.32C88.5283 8.64 89.0243 9.104 89.387 9.712C89.7497 10.32 89.931 11.0507 89.931 11.904V12.16C89.931 13.0133 89.7497 13.744 89.387 14.352C89.0243 14.96 88.5283 15.424 87.899 15.744C87.2697 16.064 86.5603 16.224 85.771 16.224ZM85.771 14.432C86.3897 14.432 86.9017 14.2347 87.307 13.84C87.7123 13.4347 87.915 12.8587 87.915 12.112V11.952C87.915 11.2053 87.7123 10.6347 87.307 10.24C86.9123 9.83467 86.4003 9.632 85.771 9.632C85.1523 9.632 84.6403 9.83467 84.235 10.24C83.8297 10.6347 83.627 11.2053 83.627 11.952V12.112C83.627 12.8587 83.8297 13.4347 84.235 13.84C84.6403 14.2347 85.1523 14.432 85.771 14.432ZM94.9919 16.224C94.3625 16.224 93.7705 16.0693 93.2159 15.76C92.6719 15.44 92.2345 14.976 91.9039 14.368C91.5732 13.76 91.4079 13.024 91.4079 12.16V11.904C91.4079 11.04 91.5732 10.304 91.9039 9.696C92.2345 9.088 92.6719 8.62933 93.2159 8.32C93.7599 8 94.3519 7.84 94.9919 7.84C95.4719 7.84 95.8719 7.89867 96.1919 8.016C96.5225 8.12267 96.7892 8.26133 96.9919 8.432C97.1945 8.60267 97.3492 8.784 97.4559 8.976H97.7439V4.8H99.7599V16H97.7759V15.04H97.4879C97.3065 15.3387 97.0239 15.6107 96.6399 15.856C96.2665 16.1013 95.7172 16.224 94.9919 16.224ZM95.5999 14.464C96.2185 14.464 96.7359 14.2667 97.1519 13.872C97.5679 13.4667 97.7759 12.88 97.7759 12.112V11.952C97.7759 11.184 97.5679 10.6027 97.1519 10.208C96.7465 9.80267 96.2292 9.6 95.5999 9.6C94.9812 9.6 94.4639 9.80267 94.0479 10.208C93.6319 10.6027 93.4239 11.184 93.4239 11.952V12.112C93.4239 12.88 93.6319 13.4667 94.0479 13.872C94.4639 14.2667 94.9812 14.464 95.5999 14.464ZM105.803 16.224C105.035 16.224 104.336 16.0533 103.707 15.712C103.088 15.36 102.592 14.8533 102.219 14.192C101.856 13.52 101.675 12.704 101.675 11.744V9.056C101.675 7.616 102.08 6.512 102.891 5.744C103.702 4.96533 104.8 4.576 106.187 4.576C107.563 4.576 108.624 4.944 109.371 5.68C110.128 6.40533 110.507 7.392 110.507 8.64V8.704H108.427V8.576C108.427 8.18133 108.342 7.824 108.171 7.504C108.011 7.184 107.766 6.93333 107.435 6.752C107.104 6.56 106.688 6.464 106.187 6.464C105.44 6.464 104.854 6.69333 104.427 7.152C104 7.61067 103.787 8.23467 103.787 9.024V11.776C103.787 12.5547 104 13.184 104.427 13.664C104.854 14.1333 105.451 14.368 106.219 14.368C106.987 14.368 107.547 14.1653 107.899 13.76C108.251 13.3547 108.427 12.8427 108.427 12.224V12.064H105.771V10.272H110.507V16H108.555V14.928H108.267C108.192 15.1093 108.07 15.3013 107.899 15.504C107.739 15.7067 107.494 15.8773 107.163 16.016C106.832 16.1547 106.379 16.224 105.803 16.224ZM112.525 16V4.8H116.445L118.381 14.56H118.669L120.605 4.8H124.525V16H122.477V6.352H122.189L120.269 16H116.781L114.861 6.352H114.573V16H112.525Z" fill="#110E08"/>
<path d="M6.57622 5.40905C6.66701 5.40905 6.71244 5.35994 6.73514 5.28278C6.96971 4.11136 6.9546 4.08331 8.27135 3.85182C8.36215 3.83781 8.41513 3.7887 8.41513 3.70451C8.41513 3.62035 8.36215 3.57124 8.27135 3.5572C6.96216 3.31173 7 3.28366 6.73514 2.12627C6.71244 2.04911 6.66701 2 6.57622 2C6.48539 2 6.43999 2.04911 6.41729 2.12627C6.15243 3.28366 6.19783 3.31173 4.88108 3.5572C4.79784 3.57124 4.7373 3.62035 4.7373 3.70451C4.7373 3.7887 4.79784 3.83781 4.88108 3.85182C6.19783 4.09735 6.18269 4.11136 6.41729 5.28278C6.43999 5.35994 6.48539 5.40905 6.57622 5.40905ZM2.91353 10.235C3.05731 10.235 3.15569 10.1508 3.17081 10.0246C3.44325 8.15168 3.51135 8.15168 5.60001 7.77994C5.73624 7.75887 5.83459 7.67472 5.83459 7.54145C5.83459 7.41518 5.73624 7.32399 5.60001 7.30295C3.51135 7.0364 3.43567 6.97326 3.17081 5.06532C3.15569 4.93908 3.05731 4.84789 2.91353 4.84789C2.77731 4.84789 2.67893 4.93908 2.66378 5.07236C2.41406 6.95222 2.30809 6.94521 0.234606 7.30295C0.0983823 7.33102 0 7.41518 0 7.54145C0 7.68172 0.0983824 7.75887 0.264861 7.77994C2.32324 8.08857 2.41406 8.13768 2.66378 10.0105C2.67893 10.1508 2.77731 10.235 2.91353 10.235ZM8.04433 18C8.2411 18 8.38488 17.8667 8.42269 17.6773C8.96 13.8334 9.5427 13.2512 13.6443 12.8303C13.8562 12.8093 14 12.662 14 12.4796C14 12.2972 13.8562 12.1569 13.6443 12.1289C9.5427 11.708 8.96 11.1258 8.42269 7.28191C8.38488 7.09252 8.2411 6.96625 8.04433 6.96625C7.84757 6.96625 7.70379 7.09252 7.67353 7.28191C7.13622 11.1258 6.54596 11.708 2.45187 12.1289C2.23244 12.1569 2.08866 12.2972 2.08866 12.4796C2.08866 12.662 2.23244 12.8093 2.45187 12.8303C6.53837 13.3284 7.10594 13.8404 7.67353 17.6773C7.70379 17.8667 7.84757 18 8.04433 18Z" fill="#110E08"/>
</svg>
